<svg width="70" height="36" viewBox="0 0 70 36" fill="none" xmlns="http://www.w3.org/2000/svg">
<path d="M67.9641 36C68.8142 36 69.5173 35.3352 69.5173 34.4916C69.5173 15.4424 53.9553 0 34.7586 0C15.562 0 0 15.4424 0 34.4916C0 35.3352 0.703031 36 1.55316 36H67.9641Z" fill="white"/>
<path fill-rule="evenodd" clip-rule="evenodd" d="M43.896 23.942C43.063 24.7687 42.6465 25.182 42.2305 25.3348C41.9775 25.4277 41.8692 25.449 41.5996 25.4586C41.1564 25.4743 40.4133 25.1669 38.927 24.552C37.4506 23.9412 36.7124 23.6358 36.4124 23.314C36.23 23.1184 36.1689 23.0274 36.0571 22.7851C35.8733 22.3865 35.8733 21.8054 35.8733 20.6431V5.76883C35.8733 3.77343 35.8733 2.77573 36.5862 2.17346C37.299 1.57118 38.2137 1.71781 40.0431 2.01106C45.1633 2.8318 50.0205 4.83499 54.2191 7.8579C55.716 8.93572 56.4645 9.47463 56.5381 10.3993C56.6118 11.324 55.9022 12.0281 54.4832 13.4362L43.896 23.942Z" fill="#FFCD39"/>
<path fill-rule="evenodd" clip-rule="evenodd" d="M45.615 25.324C44.6287 26.3027 44.1356 26.7921 43.9934 27.3045C43.9684 27.3946 43.9615 27.4263 43.9465 27.5185C43.8613 28.0433 44.1963 28.9342 44.8662 30.7161C45.6129 32.7024 45.9863 33.6955 46.4355 34.0448C46.5152 34.1068 46.5417 34.1251 46.6281 34.1775C47.1149 34.473 47.8798 34.473 49.4096 34.473L63.8011 34.473C65.751 34.473 66.726 34.473 67.331 33.7944C67.936 33.1158 67.8263 32.2307 67.607 30.4605C66.9283 24.9814 64.87 19.7648 61.6331 15.2921C60.55 13.7955 60.0084 13.0472 59.0738 12.9716C58.1391 12.896 57.4268 13.6029 56.0021 15.0167L45.615 25.324Z" fill="#FA5464"/>
<path fill-rule="evenodd" clip-rule="evenodd" d="M15.1183 13.4362C13.6992 12.028 12.9896 11.324 13.0633 10.3993C13.1369 9.47462 13.8854 8.93571 15.3824 7.8579C19.5809 4.83499 24.4381 2.8318 29.5583 2.01106C31.3877 1.71781 32.3024 1.57118 33.0153 2.17346C33.7281 2.77573 33.7281 3.77343 33.7281 5.76883V20.6431C33.7281 21.8054 33.7281 22.3865 33.5443 22.7851C33.4326 23.0274 33.3714 23.1184 33.189 23.314C32.889 23.6358 32.1508 23.9412 30.6744 24.552C29.1882 25.1669 28.445 25.4743 28.0018 25.4586C27.7322 25.449 27.6239 25.4277 27.3709 25.3348C26.955 25.182 26.5384 24.7687 25.7054 23.942L15.1183 13.4362Z" fill="#66C599"/>
<path fill-rule="evenodd" clip-rule="evenodd" d="M13.4738 15.0167C12.0491 13.6029 11.3368 12.896 10.4021 12.9716C9.46751 13.0472 8.92597 13.7955 7.84287 15.2921C4.6059 19.7648 2.54758 24.9814 1.86887 30.4605C1.6496 32.2307 1.53996 33.1158 2.14493 33.7944C2.7499 34.4731 3.72488 34.4731 5.67485 34.4731H20.0663C21.5961 34.4731 22.361 34.4731 22.8479 34.1775C22.9342 34.1251 22.9608 34.1068 23.0404 34.0448C23.4897 33.6955 23.863 32.7024 24.6097 30.7161C25.2797 28.9342 25.6146 28.0433 25.5294 27.5185C25.5145 27.4263 25.5075 27.3946 25.4825 27.3045C25.3404 26.792 24.8472 26.3027 23.8609 25.324L13.4738 15.0167Z" fill="#418CFB"/>
<path d="M28.5038 24.4423C28.2334 22.5729 30.4695 21.4582 31.8176 22.7914C34.3302 25.2762 37.1243 28.1104 37.4342 28.7252C38.0096 29.8668 37.965 32.9558 35.4801 34.1892C32.9951 35.4225 30.4041 33.4594 29.9021 32.4635C29.6304 31.9245 29.0131 27.9633 28.5038 24.4423Z" fill="#5C3E3E"/>
</svg>
