<svg width="259" height="194" viewBox="0 0 259 194" fill="none" xmlns="http://www.w3.org/2000/svg">
<path d="M253.213 135.163C256.381 135.163 259 132.667 259 129.5C259 57.9791 201.021 0 129.5 0C57.9791 0 0 57.9791 0 129.5C0 132.667 2.61928 135.163 5.78662 135.163H253.213Z" fill="white"/>
<path fill-rule="evenodd" clip-rule="evenodd" d="M163.543 89.8911C160.44 92.9948 158.888 94.5466 157.338 95.1203C156.395 95.4692 155.992 95.5489 154.987 95.585C153.336 95.6442 150.567 94.4899 145.03 92.1812C139.529 89.8879 136.779 88.7412 135.661 87.5332C134.982 86.7988 134.754 86.457 134.338 85.5472C133.653 84.0507 133.653 81.8689 133.653 77.5053V21.6592C133.653 14.1674 133.653 10.4215 136.309 8.16024C138.965 5.89898 142.373 6.44949 149.188 7.55051C168.265 10.632 186.361 18.1531 202.004 29.5027C207.581 33.5494 210.369 35.5727 210.644 39.0444C210.918 42.5161 208.275 45.1597 202.988 50.4467L163.543 89.8911Z" fill="#FFCD39"/>
<path fill-rule="evenodd" clip-rule="evenodd" d="M169.948 95.0797C166.273 98.7543 164.436 100.592 163.906 102.516C163.813 102.854 163.787 102.973 163.731 103.319C163.414 105.289 164.662 108.634 167.158 115.325C169.94 122.782 171.331 126.511 173.004 127.822C173.301 128.055 173.4 128.124 173.722 128.321C175.536 129.43 178.386 129.43 184.085 129.43L237.703 129.43C244.968 129.43 248.601 129.43 250.855 126.882C253.109 124.334 252.7 121.011 251.883 114.365C249.354 93.7935 241.686 74.2075 229.626 57.4145C225.591 51.7955 223.573 48.986 220.091 48.7023C216.609 48.4186 213.955 51.0726 208.647 56.3805L169.948 95.0797Z" fill="#FA5464"/>
<path fill-rule="evenodd" clip-rule="evenodd" d="M56.326 50.4467C51.039 45.1596 48.3954 42.5161 48.6698 39.0444C48.9441 35.5727 51.7328 33.5494 57.31 29.5027C72.9523 18.1531 91.0491 10.632 110.125 7.55052C116.941 6.44949 120.349 5.89898 123.005 8.16024C125.661 10.4215 125.661 14.1674 125.661 21.6592V77.5053C125.661 81.8689 125.661 84.0507 124.976 85.5472C124.559 86.457 124.332 86.7988 123.652 87.5332C122.534 88.7412 119.784 89.8879 114.284 92.1812C108.746 94.4899 105.977 95.6442 104.326 95.585C103.322 95.5489 102.918 95.4692 101.976 95.1203C100.426 94.5466 98.8741 92.9948 95.7704 89.8911L56.326 50.4467Z" fill="#66C599"/>
<path fill-rule="evenodd" clip-rule="evenodd" d="M50.1993 56.3805C44.8914 51.0725 42.2374 48.4185 38.7552 48.7022C35.2731 48.986 33.2554 51.7955 29.2201 57.4145C17.1602 74.2075 9.49151 93.7936 6.96285 114.365C6.1459 121.011 5.73742 124.334 7.99135 126.882C10.2453 129.43 13.8778 129.43 21.1427 129.43H74.761C80.4605 129.43 83.3102 129.43 85.1242 128.321C85.4459 128.124 85.5447 128.055 85.8416 127.822C87.5153 126.511 88.9063 122.782 91.6884 115.325C94.1842 108.634 95.4322 105.289 95.1148 103.319C95.0591 102.973 95.0332 102.854 94.9401 102.516C94.4104 100.592 92.5731 98.7543 88.8985 95.0797L50.1993 56.3805Z" fill="#418CFB"/>
<path d="M104.031 76.2317C103.777 74.3535 106.024 73.2273 107.379 74.5528C116.504 83.4808 137.788 104.49 139.468 107.85C141.612 112.136 141.446 123.734 132.188 128.364C122.93 132.995 113.276 125.624 111.406 121.885C109.938 118.95 105.759 88.9764 104.031 76.2317Z" fill="#5C3E3E"/>
<path d="M120.573 191.914V143.189H135.252V191.914H120.573Z" fill="white"/>
<path d="M189.448 191.914V165.207C189.448 162.692 189.527 159.929 189.686 156.916L189.788 154.673H189.38C188.655 158.502 188.1 161.152 187.715 162.624L180.546 191.914H166.75L159.241 162.964C159.037 162.239 158.505 159.476 157.644 154.673H157.236C157.553 162.285 157.712 167.042 157.712 168.944V191.914H144.834V143.189H166.818L173.512 169.658C173.671 170.202 173.875 171.312 174.124 172.988C174.396 174.641 174.565 175.921 174.633 176.827H174.837C175.086 174.766 175.483 172.331 176.027 169.522L182.279 143.189H203.923V191.914H189.448Z" fill="white"/>
<path d="M249.794 190.589C245.762 192.038 241.107 192.763 235.829 192.763C230.642 192.763 226.168 191.778 222.407 189.807C218.647 187.814 215.77 184.994 213.777 181.347C211.806 177.677 210.821 173.452 210.821 168.673C210.821 163.53 211.931 158.955 214.151 154.945C216.37 150.936 219.508 147.844 223.563 145.669C227.617 143.472 232.284 142.373 237.562 142.373C241.775 142.373 245.853 142.883 249.794 143.902V157.46C248.435 156.644 246.815 156.01 244.935 155.557C243.055 155.104 241.152 154.877 239.227 154.877C235.24 154.877 232.091 156.021 229.781 158.309C227.493 160.597 226.349 163.7 226.349 167.619C226.349 171.515 227.493 174.596 229.781 176.861C232.091 179.104 235.172 180.225 239.023 180.225C242.579 180.225 246.17 179.319 249.794 177.507V190.589Z" fill="white"/>
<path d="M27.9983 172.929C26.4652 172.962 23.1848 177.504 18.157 186.554C16.4591 189.603 15.4701 191.268 15.1898 191.548C14.9096 191.812 14.3903 192.051 13.632 192.266C12.8902 192.48 12.2721 192.587 11.7775 192.587C10.6731 192.587 10.1208 190.436 10.1208 186.133C10.1208 183.71 10.6401 179.325 11.6786 172.979C12.1072 170.407 12.3215 168.569 12.3215 167.465C12.3215 166.377 12.8078 165.833 13.7804 165.833C15.6102 165.833 16.5251 167.151 16.5251 169.789C16.5251 171.025 16.2201 173.449 15.6102 177.059C14.9014 181.18 14.5387 183.685 14.5222 184.576C15.5442 183.586 17.0443 181.419 19.0225 178.072C21.8248 173.49 23.8854 170.588 25.2042 169.369C26.5394 168.132 27.9159 167.514 29.3335 167.514C30.405 167.514 31.254 168.231 31.8804 169.665C32.5233 171.099 32.9107 174.52 33.0425 179.927C33.0755 181.279 33.1991 182.284 33.4134 182.944C33.6277 183.603 33.7843 183.933 33.8832 183.933C34.658 183.933 36.3394 181.295 38.9275 176.02C40.3122 173.234 41.6557 171.116 42.958 169.665C44.2767 168.215 45.7356 167.489 47.3346 167.489C48.6698 167.489 49.6424 168.182 50.2523 169.566C50.8623 170.935 51.2991 172.97 51.5629 175.674C51.8101 178.41 52.1893 180.916 52.7003 183.191C53.2278 185.466 54.1839 186.925 55.5686 187.567C56.5082 188.013 56.978 188.532 56.978 189.125C56.978 189.702 56.5824 190.296 55.7911 190.906C54.9999 191.516 54.2746 191.82 53.6152 191.82C52.2964 191.82 51.1178 191.013 50.0793 189.397C49.0407 187.782 48.2577 184.287 47.7302 178.913C47.4994 176.754 47.2769 175.221 47.0626 174.314C46.8483 173.407 46.5104 172.954 46.0488 172.954C45.3565 172.954 44.5322 173.613 43.5761 174.932C42.6365 176.251 41.1117 178.93 39.0017 182.968C37.3532 186.117 36.1004 188.219 35.2432 189.274C34.4025 190.312 33.5865 190.831 32.7953 190.831C32.0864 190.831 31.4518 190.551 30.8913 189.991C30.3308 189.414 29.9764 188.73 29.8281 187.938C29.6797 187.131 29.5231 185.161 29.3583 182.029C29.111 176.82 28.6577 173.786 27.9983 172.929Z" fill="white"/>
<path d="M82.5702 184.106C82.5702 185.787 81.0784 187.815 78.0947 190.189C75.1275 192.562 72.0613 193.749 68.8963 193.749C66.2423 193.749 64.19 192.966 62.7393 191.4C61.3052 189.834 60.5881 187.65 60.5881 184.848C60.5881 180.133 62.1789 175.649 65.3604 171.396C68.5419 167.143 72.0201 165.017 75.7951 165.017C77.0314 165.017 78.037 165.421 78.8117 166.228C79.603 167.036 79.9986 168.009 79.9986 169.146C79.9986 171.685 78.754 174.116 76.2649 176.44C73.7757 178.765 70.4459 181.048 66.2753 183.29C65.4181 183.735 64.9895 184.312 64.9895 185.021C64.9895 186.389 65.3851 187.485 66.1764 188.309C66.9676 189.134 68.138 189.546 69.6876 189.546C73.2317 189.546 76.8501 187.584 80.5426 183.661C81.0866 183.117 81.4987 182.845 81.7789 182.845C82.3064 182.845 82.5702 183.265 82.5702 184.106ZM65.3851 180.248C72.3745 176.094 75.8692 172.756 75.8692 170.234C75.8692 169.245 75.4242 168.75 74.534 168.75C73.0174 168.75 71.303 169.863 69.3908 172.089C67.4951 174.314 66.1599 177.034 65.3851 180.248Z" fill="white"/>
<path d="M105.22 181.732C103.11 185.276 100.95 188.021 98.7415 189.966C96.5326 191.911 94.4802 192.884 92.5845 192.884C91.4965 192.884 90.3838 192.249 89.2464 190.98C88.1255 189.71 87.565 187.757 87.565 185.12C87.565 182.96 88.0843 179.779 89.1228 175.575C89.9965 172.064 90.4333 169.599 90.4333 168.182C90.9114 167.193 91.6614 166.698 92.6834 166.698C93.3758 166.698 93.928 166.945 94.3401 167.44C94.7522 167.918 94.9583 168.421 94.9583 168.948C94.9583 170.102 94.5544 171.742 93.7467 173.869C92.2136 178.006 91.4471 181.559 91.4471 184.526C91.4471 187.23 92.0735 188.581 93.3263 188.581C94.9253 188.581 96.9612 187.221 99.4338 184.501C101.907 181.781 104.025 177.99 105.789 173.127C106.481 171.182 107.041 169.921 107.47 169.344C107.915 168.75 108.509 168.454 109.25 168.454C110.371 168.454 110.932 169.196 110.932 170.679C110.932 170.86 110.775 171.462 110.462 172.484C109.473 176.094 108.978 179.507 108.978 182.721C108.978 186.578 109.613 189.076 110.882 190.213C111.542 190.823 111.871 191.318 111.871 191.697C111.871 192.158 111.533 192.579 110.858 192.958C110.198 193.337 109.597 193.527 109.053 193.527C107.899 193.527 106.967 192.669 106.258 190.955C105.55 189.241 105.195 186.71 105.195 183.364V182.548C105.195 182.284 105.203 182.012 105.22 181.732Z" fill="white"/>
</svg>
